<?xml version="1.0" encoding="UTF-8" standalone="no"?>
<!DOCTYPE svg PUBLIC "-//W3C//DTD SVG 1.1//EN" "http://www.w3.org/Graphics/SVG/1.1/DTD/svg11.dtd">
<svg width="100%" height="100%" viewBox="0 0 1250 1250" version="1.1" xmlns="http://www.w3.org/2000/svg" xmlns:xlink="http://www.w3.org/1999/xlink" xml:space="preserve" xmlns:serif="http://www.serif.com/" style="fill-rule:evenodd;clip-rule:evenodd;stroke-linejoin:round;stroke-miterlimit:2;">
    <g id="Mouse" transform="matrix(4.16667,0,0,4.16667,0,0)">
        <g transform="matrix(1,0,0,1,151.333,231.666)">
            <path d="M0,-162C-20.667,-161.333 -30.667,-155.333 -30.667,-155.333C-40,-171.333 -54.667,-190 -76,-188C-97.333,-186 -105.333,-184 -116.667,-166C-128,-148 -128.667,-137.333 -116.667,-118.667C-104.667,-100 -78.042,-99.333 -78.042,-99.333C-78.042,-99.333 -70.667,-62 -66,-54C-61.333,-46 -30,-15.333 -22.667,-13.333C-22.667,-13.333 -38,-10.666 -31.333,8.667C-24.667,28 -17.333,25.333 -6.667,25.333L6.666,25.333" style="fill:white;fill-rule:nonzero;"/>
        </g>
        <g transform="matrix(1,0,0,1,94.9136,177.176)">
            <path d="M0,3.448C-2.371,1.232 -4.718,-2.696 -3.369,-2.471L-3.126,-3.11C-2.767,-1.924 4.813,6.558 0,3.448" style="fill:rgb(35,31,32);fill-rule:nonzero;"/>
        </g>
        <g transform="matrix(1,0,0,1,92.3374,184.879)">
            <path d="M0,-0.985C-1.558,-3.221 -0.002,-1.829 0.57,-1.712L3.006,1.096C3.444,2.236 1.129,0.106 0,-0.985" style="fill:white;fill-rule:nonzero;"/>
        </g>
        <g transform="matrix(0.509825,0.860278,0.860278,-0.509825,83.997,188.087)">
            <path d="M0.644,0.466L1.842,0.466C0.658,0.453 -1.095,0.276 -2.209,0.071C-2.38,0.516 -0.271,1.32 1.997,1.547C1.604,1.098 -0.648,0.699 0.644,0.466" style="fill:rgb(35,31,32);fill-rule:nonzero;"/>
        </g>
        <g transform="matrix(1,0,0,1,73.2788,46.7879)">
            <path d="M0,83.133C-0.089,83.302 -0.126,83.483 -0.109,83.673L-0.042,83.966L0.023,84.117L0.042,84.156L0.046,84.163C2.687,86.389 0.777,84.78 1.367,85.278L1.366,85.279L1.357,85.286L1.341,85.302L1.277,85.367C0.937,85.73 0.624,86.317 0.344,87.069C-0.21,88.572 -0.623,90.737 -0.797,93.102L-3.403,91.893C-3.307,90.991 -3.363,89.903 -3.512,88.691L-3.801,86.789L-3.845,86.537L-3.868,86.41L-3.88,86.347L-3.886,86.315C3.704,92.712 -1.785,88.088 -0.092,89.516L-0.097,89.516L-0.107,89.515L-0.128,89.514L-0.745,89.479L-1.889,89.399C-4.911,89.174 -8.117,88.817 -10.908,88.214C-13.179,88.217 -5.844,90.082 -11.499,89.368C-12.05,88.896 -11.47,88.441 -12.576,87.96C-17.532,87.002 -15.701,90.212 -26.056,85.072C-27.058,84.214 -27.979,83.204 -28.888,82.248C-37.66,77.492 -44.527,68.697 -48.733,60.414C-53.694,52.146 -55.419,39.584 -51.128,30.63C-51.254,26.763 -46.507,18.432 -44.017,13.565L-43.37,13.828C-42.641,10.489 -38.211,6.729 -35.264,3.558C-34.151,2.803 -33.099,2.032 -31.94,1.355C-30.461,1.058 -39.155,9.491 -35.525,8.159C-30.043,3.151 -26.46,-2.516 -19.348,-3.641C-13.015,-5.235 -13.92,-5.593 -10.118,-6.708C-9.232,-7.562 -11.484,-7.161 -11.215,-8.02C2.389,-9.969 3.901,-7.864 16.444,-5.02C17.029,-5.744 27.561,-2.529 18.552,-7.348C16.886,-7.587 15.311,-8.004 13.638,-8.029L10.476,-9.427C14.367,-9.027 20.971,-6.552 20.461,-7.465C24.651,-4.205 42.653,5.191 32.552,1.71C28.246,-2.644 26.309,-3.425 22.328,-4.419C34.832,2.443 41.115,12.699 46.919,21.302L49.565,23.292C49.152,23.685 49.444,25.077 50.11,26.918L50.379,27.627L50.416,27.719L50.434,27.765C48.266,27.209 55.289,29.013 45.573,26.519L45.587,26.513L45.606,26.504L45.644,26.487L45.905,26.376L46.358,26.202L48.134,25.591L51.817,24.46C53.818,23.475 56.576,22.818 55.77,22.454C56.154,21.994 51.62,23.088 47.992,24.418C47.076,24.739 46.23,25.065 45.436,25.385C45.333,25.428 45.252,25.457 45.101,25.531L45.05,25.555L45.025,25.567L45.007,25.576C57.753,28.846 48.54,26.481 51.384,27.209L51.362,27.155L51.321,27.049L51.182,26.659C51.104,26.42 51.057,26.221 51.047,26.073C51.027,25.779 51.156,25.689 51.491,25.883C51.658,25.981 51.876,26.15 52.153,26.401L52.372,26.605L52.387,26.618L52.39,26.622C48.83,25.708 60.366,28.673 44.408,24.574L44.424,24.562L44.489,24.511L44.624,24.409L44.808,24.258L45.586,23.648C57.78,18.471 70.44,18.679 77.961,19.99C72.558,20.471 68.539,20.52 63.165,23.042C58.49,24.304 53.777,25.753 49.271,27.87L47.598,28.721L47.18,28.96C48.68,29.572 47.455,28.905 47.726,28.94L47.235,28.158L45.248,25.038C43.903,22.969 42.504,20.929 41.021,18.959C35.196,11.105 27.853,3.904 19.214,0.82C19.013,-0.259 14.496,-2.274 16.121,-2.49C14.618,-3.666 9.717,-4.193 8.465,-5.238C0.683,-5.104 -6.62,-3.8 -14.362,-2.348C-22.049,-0.895 -29.195,3.53 -33.435,8.705C-29.632,7.214 -37.522,15.608 -38.456,19.287C-41.011,21.671 -43.61,26.976 -45.096,30.994C-44.957,31.561 -45.659,34.098 -44.919,33.663C-44.166,30.646 -43.296,29.749 -41.705,26.996C-40.956,28.791 -44.807,33.033 -45.678,37.7C-45.857,36.847 -45.842,36.001 -45.924,35.12C-48.57,42.455 -48.487,53.482 -43.484,59.362C-44.014,57.295 -44.402,55.209 -44.685,53.156C-41.113,61.049 -36.299,71.791 -29.653,74.237C-34.224,70.62 -40.167,62.841 -38.376,61.912C-37.232,61.778 -34.047,67.366 -32.042,69.566C-23.259,80.41 -10.727,79.434 0,83.133" style="fill:rgb(35,31,32);fill-rule:nonzero;"/>
        </g>
        <g transform="matrix(1,0,0,1,56.4526,99.7774)">
            <path d="M0,23.04C-9.394,18.665 -6.374,23.607 -14.415,17.093C-12.832,17.201 -15.672,13.207 -17.288,10.524C-19.663,7.963 -21.361,4.133 -22.577,1.525C-23.075,-0.37 -22.008,-0.567 -20.266,2.817C-17.619,13.687 -7.798,18.313 0,23.04" style="fill:rgb(35,31,32);fill-rule:nonzero;"/>
        </g>
        <g transform="matrix(0.97051,-0.241059,-0.241059,-0.97051,64.5261,129.971)">
            <path d="M-0.677,-0.951C-5.964,1.633 -2.84,2.621 -7.884,5.104C-5.192,4.894 -5.35,3.333 -0.677,0.961C-1.678,1.198 -2.69,1.438 -3.676,1.747C-2.727,0.796 -1.699,-0.052 -0.677,-0.951" style="fill:white;fill-rule:nonzero;"/>
        </g>
        <g transform="matrix(1,0,0,1,31.8438,88.4707)">
            <path d="M0,12.437C-1.867,9.276 -2.49,1.47 -0.764,1.365C-0.638,0.916 -0.025,1.66 -0.192,0C-1.22,2.543 0.809,10.467 0,12.437" style="fill:rgb(35,31,32);fill-rule:nonzero;"/>
        </g>
        <g transform="matrix(1,0,0,1,35.5356,111.534)">
            <path d="M0,6.264C-1.536,4.651 -2.992,2.78 -4.648,0C-3.369,1.722 -1.404,3.588 0,6.264" style="fill:white;fill-rule:nonzero;"/>
        </g>
        <g transform="matrix(1,0,0,1,27.8569,92.175)">
            <path d="M0,5.221C-0.804,6.207 -1.082,2.247 -1.128,1.221C-1.06,0.473 -1.094,-0.255 -0.939,-0.986C-0.587,1.037 0.071,3.462 0,5.221" style="fill:rgb(35,31,32);fill-rule:nonzero;"/>
        </g>
        <g transform="matrix(-0.999981,-0.00622265,-0.00622265,0.999981,38.0052,70.2057)">
            <path d="M1.031,-1.053C-2.001,-5.321 2.695,4.263 -0.635,-0.959C-0.084,0.084 0.533,1.117 1.031,2.161L3.04,2.531C2.413,1.328 1.749,0.132 1.031,-1.053" style="fill:rgb(35,31,32);fill-rule:nonzero;"/>
        </g>
        <g transform="matrix(1,0,0,1,42.519,59.153)">
            <path d="M0,4.203C0.573,2.871 1.347,1.545 3.236,0L2.782,1.367C2.382,2.208 1.172,2.605 0,4.203" style="fill:rgb(35,31,32);fill-rule:nonzero;"/>
        </g>
        <g transform="matrix(1,0,0,1,35.7324,66.4785)">
            <path d="M0,0.521C1.074,-1.853 1.563,-1.084 2.722,-2.271C2.549,-1.242 -1.26,2.792 0,0.521" style="fill:rgb(35,31,32);fill-rule:nonzero;"/>
        </g>
        <g transform="matrix(1,0,0,1,49.3984,50.1032)">
            <path d="M0,-9.34C-2.26,-7.109 -8.156,-4.446 -11.778,0C-8.07,-4.148 -6.27,-6.613 0,-9.34" style="fill:rgb(35,31,32);fill-rule:nonzero;"/>
        </g>
        <g transform="matrix(1,0,0,1,122.89,209.567)">
            <path d="M0,-3.38C1.344,-1.702 3.53,-0.433 4.806,0L4.25,-0.945C2.857,-1.717 1.426,-2.484 0,-3.38" style="fill:rgb(35,31,32);fill-rule:nonzero;"/>
        </g>
        <g transform="matrix(-0.729079,0.68443,0.68443,0.729079,121.301,194.281)">
            <path d="M8.198,-21.59C9.7,-23.91 9.006,-19.903 9.999,-15.465C10.141,-9.61 8.621,-3.56 8.198,2.173L7.044,5.565C7.266,-1.252 7.458,-13.427 8.198,-21.59" style="fill:rgb(35,31,32);fill-rule:nonzero;"/>
        </g>
        <g transform="matrix(1,0,0,1,92.0649,192.511)">
            <path d="M0,-6.546C2.482,-2.834 7.231,0.526 9.531,2.739C5.828,-1.174 1.088,-6.275 -1.294,-9.162C-1.875,-9.285 -0.588,-7.518 0,-6.546" style="fill:white;fill-rule:nonzero;"/>
        </g>
        <g transform="matrix(1,0,0,1,133.353,137.226)">
            <path d="M0,111.335C-2.4,110.588 -6.26,99.274 -8.088,94.665C-8.181,97.279 -8.724,97.409 -7.388,102.397C-10.603,99.317 -9.485,94.45 -8.646,91.806C-9.522,94.312 -10.065,90.532 -8.625,88.622C-7.88,87.857 -6.837,87.106 -5.479,86.535L-4.445,86.148L-3.951,86.016C-3.915,86.009 -3.737,85.965 -3.822,85.986L-3.835,85.988L-3.836,85.988C-3.399,68.406 -3.71,81.089 -3.611,77.153L-3.593,77.065L-3.558,76.89C-3.523,76.7 -3.428,76.32 -3.434,76.29L-3.506,76.242C-3.741,76.152 -4.633,75.644 -5.489,75.101C-9.059,72.726 -13.084,69.392 -16.606,66.317C-20.195,64.228 -29.056,54.056 -28.981,56.748C-33.209,52.759 -32.714,51.141 -35.331,47.751C-40.402,43.752 -43.922,38.983 -44.129,34.507C-45.035,29.124 -45.655,23.126 -48.627,16.814C-47.317,17.366 -49.072,10.777 -49.555,8.147C-50.171,5.3 -51.167,0.488 -52.16,-3.183C-52.407,-4.101 -52.658,-4.946 -52.902,-5.669L-53.083,-6.18L-53.105,-6.24L-53.111,-6.255L-53.113,-6.262C-56.134,-8.809 -46.355,-0.568 -59.885,-11.972L-59.887,-11.972L-59.902,-11.967L-59.963,-11.949L-60.118,-11.914L-60.811,-11.759C-61.663,-11.543 -61.971,-11.173 -61.339,-10.58C-60.925,-10.356 -60.378,-10.201 -59.97,-10.103L-59.935,-10.095L-59.933,-10.094C-61.013,-11.006 -50.513,-2.153 -54.958,-5.899L-54.957,-5.892L-54.954,-5.849L-54.944,-5.734L-54.921,-5.502L-54.859,-5.019L-54.683,-4.009C-54.407,-2.625 -53.975,-1.107 -53.524,0.474C-52.626,3.639 -51.633,7.044 -51.657,10.181C-51.569,20.971 -54.968,-0.349 -56.815,-0.153C-56.151,1.276 -57.652,2.467 -56.05,6.928C-59.044,-2.663 -57.255,11.438 -59.504,6.674C-58.113,18.165 -58.327,17.1 -59.302,23.419C-57.146,30.113 -55.967,27.769 -54.551,29.441C-53.039,32.883 -52.433,36.097 -51.457,39.373C-50.442,42.964 -48.375,45.821 -46.176,48.075C-51.772,46.326 -40.684,57.927 -35.143,63.021C-28.179,69.966 -30.973,63.466 -23.565,70.681C-20.73,75.267 -32.598,64.953 -28.638,70.723L-24.671,73.521C-21.595,74.7 -18.764,75.17 -15.42,76.856C-13.717,78.217 -11.05,80.177 -11.204,80.583C-14.994,78.392 -14.771,80.047 -11.163,83.386C-8.863,84.257 -8.266,84.488 -6.612,84.628C-9.282,82.627 -8.859,81.997 -8.457,82.131C-8.105,82.191 -7.739,82.482 -6.803,82.836C-6.369,83.016 -5.877,83.221 -5.339,83.438L-5.327,83.443C-5.371,84.471 -4.903,74.499 -5.105,78.721L-5.114,78.722L-5.147,78.729L-5.214,78.741L-5.348,78.767L-5.565,78.815L-5.997,78.915L-6.852,79.155C-11.664,80.034 -17.141,86.308 -16.472,90.185C-16.396,100.043 -14.871,101.882 -15.592,104.718C-15.479,107.227 -17.062,110.228 -10.116,118.352C-10.93,114.803 -9.086,117.844 -4.588,120.328C0.238,122.865 6.447,122.092 9.088,121.597C13.839,121.603 15.657,122.437 19.016,123.307C20.346,122.999 24.08,122.839 24.646,122.294C23.296,120.412 19.818,118.585 14.862,116.838C10.523,114.917 1.135,114.068 0.335,111.261C0.18,111.281 0.036,111.278 0,111.335" style="fill:rgb(35,31,32);fill-rule:nonzero;"/>
        </g>
        <g transform="matrix(1,0,0,1,157.999,44.333)">
            <path d="M0,212.666C10.666,212.666 18,215.333 24.666,196C31.333,176.667 16,173.999 16,173.999C23.334,171.999 54.666,141.333 59.334,133.333C64,125.333 71.376,87.999 71.376,87.999C71.376,87.999 98,87.333 110,68.666C122,50 121.334,39.333 110,21.333C98.666,3.333 90.666,1.333 69.334,-0.667C48,-2.667 33.334,15.999 24,31.999C24,31.999 14,25.999 -6.666,25.333" style="fill:white;fill-rule:nonzero;"/>
        </g>
        <g transform="matrix(1,0,0,1,252.782,60.781)">
            <path d="M0,-4.51C2.192,-3.287 4.93,0.539 3.711,0.552L3.625,1.322C2.435,-0.866 -4.271,-5.832 0,-4.51" style="fill:rgb(35,31,32);fill-rule:nonzero;"/>
        </g>
        <g transform="matrix(1,0,0,1,254.74,52.4494)">
            <path d="M0,0.139C1.764,1.957 0.104,0.947 -0.419,0.961C-1.334,0.338 -2.193,-0.384 -3.181,-0.901C-3.851,-1.818 -1.246,-0.634 0,0.139" style="fill:white;fill-rule:nonzero;"/>
        </g>
        <g transform="matrix(-0.667446,-0.744659,-0.744659,0.667446,261.187,48.2144)">
            <path d="M0.961,-1.105L2.308,-1.105C0.951,-1.122 -0.961,-1.323 -2.178,-1.38C-2.309,-0.953 -0.034,-0.304 2.504,-0.027C2.041,-0.461 -0.45,-0.877 0.961,-1.105" style="fill:rgb(35,31,32);fill-rule:nonzero;"/>
        </g>
        <g transform="matrix(1,0,0,1,272.737,256.576)">
            <path d="M0,-158.201C1.004,-157.046 4.287,-159.429 6.154,-164.079C6.836,-163.408 7.512,-162.692 8.178,-161.933C6.645,-158.286 4.673,-151.337 1.925,-146.577C1.307,-144.492 5.08,-150.689 2.873,-145.695C2.279,-145.322 1.995,-145.991 1.249,-145.105C-0.928,-140.863 2.891,-141.685 -5.3,-133.115C-6.489,-132.483 -7.723,-131.958 -8.901,-131.416C-16.445,-125.294 -25.437,-121.377 -34.587,-119.326C-36.888,-118.803 -39.189,-118.417 -41.596,-118.169L-42.529,-118.088L-43.058,-118.053L-43.204,-118.045C-31.364,-128.03 -39.924,-120.805 -37.281,-123.031L-37.283,-123.018L-37.288,-122.993L-37.297,-122.941L-37.333,-122.737L-37.626,-121.138L-38.244,-117.984C-39.1,-113.804 -40.091,-109.715 -41.284,-105.766C-40.785,-102.642 -43.133,-94.483 -43.869,-89.245L-44.563,-89.311C-44.297,-86.034 -46.958,-81.701 -48.717,-77.502C-49.533,-76.217 -50.461,-75.099 -51.449,-74.103C-52.382,-73.793 -50.692,-76.21 -49.824,-78.811C-49.095,-81.112 -48.721,-83.085 -50.019,-81.919C-53.496,-74.764 -55.905,-69.912 -60.556,-66.166C-64.773,-62.086 -63.765,-62.071 -66.024,-59.2C-66.188,-58.053 -64.713,-59.559 -64.411,-58.731C-73.465,-49.134 -76.41,-51.341 -84.874,-43.508C-84.745,-42.806 -91.259,-35.696 -83.855,-40.626L-81.163,-43.875L-78.536,-45.152C-80.876,-42.996 -85.487,-39.224 -84.471,-39.056C-87.347,-38.629 -90.009,-34.872 -95.956,-31.785L-96.552,-31.517L-96.846,-31.39L-96.863,-31.383C-96.729,-28.365 -98.097,-57.647 -97.51,-45.251L-97.495,-45.248L-97.438,-45.24L-97.322,-45.223L-97.094,-45.187C-96.688,-45.118 -96.315,-45.057 -96.006,-44.987C-95.376,-44.854 -94.814,-44.709 -94.347,-44.556C-93.383,-44.276 -92.732,-43.939 -92.436,-43.746C-91.862,-43.266 -92.786,-43.485 -96.02,-43.517C-96.472,-43.701 -96.878,-43.849 -97.463,-44.01L-97.6,-44.044L-97.719,-44.072C-98.207,-54.383 -97.065,-30.027 -97.179,-32.537L-97.173,-32.538L-96.988,-32.593L-96.623,-32.703L-95.917,-32.932C-95.005,-33.24 -94.077,-33.608 -93.67,-33.859C-92.664,-34.406 -91.698,-34.93 -91.094,-35.437C-89.801,-36.458 -88.822,-37.5 -87.759,-39.038C-90.431,-37.123 -92.445,-35.414 -96.695,-33.753L-97.098,-33.612L-97.299,-33.543L-97.399,-33.51L-97.425,-33.501L-97.438,-33.497C-97.347,-31.409 -98.298,-51.67 -97.885,-43.091L-97.813,-43.076C-97.367,-42.982 -97.242,-42.929 -96.949,-42.851L-95.581,-42.371C-94.711,-42.03 -93.889,-41.617 -93.091,-41.173C-91.501,-40.264 -90.062,-39.088 -88.799,-37.757C-83.525,-31.975 -83.967,-24.489 -85.145,-19.313C-84.966,-18.138 -84.959,-17.033 -84.878,-15.844C-86.032,-15.808 -88.236,-11.353 -90.921,-6.971C-91.693,-4.891 -93.647,-2.537 -92.776,-2.773C-91.573,-1.263 -84.081,-19.566 -85.838,-10.321C-88.303,-5.119 -92.17,1.875 -99.79,4.16C-107.011,5.878 -111.354,3.873 -114.738,3.313C-110.008,2.898 -105.453,4.303 -100.076,0.477C-95.465,-2.146 -93.192,-6.792 -91.367,-11.136C-89.621,-15.56 -88.008,-20.222 -87.993,-25.112C-87.912,-29.98 -90.575,-34.918 -94.946,-36.91C-95.994,-37.436 -97.095,-37.851 -98.226,-38.081C-99.214,-38.597 -96.703,-39.015 -96.254,-39.733C-94.386,-41.014 -92.716,-42.548 -91.122,-44.094C-90.093,-43.835 -86.279,-46.67 -86.841,-45.132C-85.182,-45.766 -82.142,-49.261 -80.476,-49.268C-71.323,-59.893 -58.302,-69.517 -52.167,-81.739C-55.203,-79.158 -50.809,-89.366 -50.896,-92.994C-49.185,-95.924 -48.193,-101.503 -47.297,-105.543C-47.532,-106.066 -47.086,-108.599 -47.778,-108.118C-48.214,-105.077 -48.908,-104.093 -49.837,-101.09C-50.989,-102.686 -48.206,-107.615 -47.137,-112.174L-46.87,-109.612C-45.99,-113.403 -44.458,-117.435 -43.165,-121.431L-42.692,-122.928L-42.468,-123.674C-42.866,-123.43 -41.422,-124.747 -43.334,-123.222L-42.924,-123.209C-41.863,-123.187 -40.834,-123.225 -39.83,-123.328C-37.819,-123.512 -35.93,-123.967 -34.261,-124.656C-36.332,-124.743 -38.37,-124.865 -40.38,-125.138C-32.036,-126.509 -21.03,-128.433 -16.575,-133.529C-21.479,-130.777 -30.203,-126.803 -30.616,-128.885C-30.531,-129.863 -24.51,-131.795 -21.692,-132.86C-8.5,-137.21 -6.546,-149.243 0,-158.201" style="fill:rgb(35,31,32);fill-rule:nonzero;"/>
        </g>
        <g transform="matrix(1,0,0,1,261.565,126.727)">
            <path d="M0,-14.726C-6.497,-7.855 -1.178,-8.809 -9.791,-3.627C-9.172,-5.101 -13.854,-3.644 -17.017,-2.703C-19.851,-1.041 -23.812,-0.52 -26.62,-0.048C-28.592,0 -28.458,-1.186 -24.808,-1.915C-14.817,-1.672 -5.792,-9.738 0,-14.726" style="fill:rgb(35,31,32);fill-rule:nonzero;"/>
        </g>
        <g transform="matrix(0.0559082,-0.998436,-0.998436,-0.0559082,265.149,107.299)">
            <path d="M0.402,-6.191C-4.71,-3.779 -1.829,-2.707 -6.653,-0.431C-4.138,-0.559 -4.183,-2.051 0.402,-4.295C-0.576,-4.085 -1.567,-3.878 -2.539,-3.602C-1.598,-4.518 -0.596,-5.326 0.402,-6.191" style="fill:white;fill-rule:nonzero;"/>
        </g>
        <g transform="matrix(1,0,0,1,234.052,135.077)">
            <path d="M0,-6.524C-0.839,-6.354 -1.978,-6.229 -3.188,-6.18L-4.101,-6.162L-4.552,-6.168L-4.74,-6.178L-4.764,-6.179C-11.329,-0.645 -6.584,-4.643 -8.05,-3.406L-8.057,-3.38L-8.074,-3.321L-8.107,-3.202L-8.689,-1.307C-9.503,1.147 -10.436,3.148 -11.131,3.125C-11.35,3.624 -11.839,2.595 -12.018,4.618C-11.478,3.116 -10.687,0.096 -9.807,-2.663L-9.474,-3.674L-9.469,-3.69C-10.483,-2.836 -0.628,-11.142 -4.798,-7.625L-4.796,-7.625L-4.77,-7.621L-4.728,-7.614L-4.643,-7.6L-4.43,-7.576L-3.985,-7.527C-3.384,-7.473 -2.801,-7.395 -2.272,-7.319C-1.215,-7.157 -0.386,-6.917 0,-6.524" style="fill:rgb(35,31,32);fill-rule:nonzero;"/>
        </g>
        <g transform="matrix(1,0,0,1,250.777,132.311)">
            <path d="M0,-2.775C-1.853,-1.735 -3.869,-0.916 -6.961,0C-4.984,-0.809 -2.782,-2.196 0,-2.775" style="fill:white;fill-rule:nonzero;"/>
        </g>
        <g transform="matrix(1,0,0,1,229.786,137.735)">
            <path d="M0,-6.168C0.056,-6.266 -1.554,-3.035 -1.61,-1.924L-2.479,0.098C-1.83,-2.022 -2.972,-4.301 0,-6.168" style="fill:rgb(35,31,32);fill-rule:nonzero;"/>
        </g>
        <g transform="matrix(0.962841,-0.270069,-0.270069,-0.962841,218.962,161.179)">
            <path d="M-0.099,-0.087C-3.075,-4.341 1.501,5.213 -1.764,-0.001L-0.099,3.124L1.923,3.469L-0.099,-0.087Z" style="fill:rgb(35,31,32);fill-rule:nonzero;"/>
        </g>
        <g transform="matrix(1,0,0,1,215.379,173.389)">
            <path d="M0,-4.965C-0.1,-3.538 -0.421,-2 -1.587,0L-1.665,-1.398C-1.571,-2.262 -0.592,-3.103 0,-4.965" style="fill:rgb(35,31,32);fill-rule:nonzero;"/>
        </g>
        <g transform="matrix(1,0,0,1,220.703,163.873)">
            <path d="M0,-0.904C-0.321,1.616 -0.999,1.04 -1.744,2.488C-1.922,1.462 0.531,-3.392 0,-0.904" style="fill:rgb(35,31,32);fill-rule:nonzero;"/>
        </g>
        <g transform="matrix(1,0,0,1,216.958,179.16)">
            <path d="M0,11.73C0.667,8.806 4.648,6.462 7.527,0C4.748,6.091 3.726,7.547 0,11.73" style="fill:rgb(35,31,32);fill-rule:nonzero;"/>
        </g>
        <g transform="matrix(1,0,0,1,221.023,51.9315)">
            <path d="M0,-1.329C-1.741,-1.513 -3.678,-0.74 -4.658,0.026L-3.692,0.184C-2.517,-0.43 -1.275,-0.88 0,-1.329" style="fill:rgb(35,31,32);fill-rule:nonzero;"/>
        </g>
        <g transform="matrix(0.24071,-0.970597,-0.970597,-0.24071,242.093,43.0512)">
            <path d="M-10.453,-8.305C-9.343,-10.321 -9.278,-7.347 -8.09,-3.606C-7.665,1.461 -9.721,7.153 -10.453,12.704C-10.898,13.775 -11.394,14.484 -11.834,15.351C-11.225,9.77 -9.818,-2.789 -10.453,-8.305" style="fill:rgb(35,31,32);fill-rule:nonzero;"/>
        </g>
        <g transform="matrix(1,0,0,1,254.582,48.4878)">
            <path d="M0,2.083C-3.218,-1.019 -9.03,-1.683 -11.967,-2.235C-6.861,-1.166 -0.882,1.833 1.71,4.302C2.281,4.318 0.813,2.82 0,2.083" style="fill:white;fill-rule:nonzero;"/>
        </g>
        <g transform="matrix(1,0,0,1,175.979,55.7897)">
            <path d="M0,26.181C0.671,26.455 1.401,26.789 1.938,27.099L2.089,27.19C2.14,27.219 2.066,27.181 2.047,27.169C6.796,25.95 -8.586,29.896 12.693,24.435L12.696,24.431L12.702,24.421L12.714,24.403L12.737,24.365L12.785,24.29L13.173,23.687L13.969,22.457C15.058,20.811 16.211,19.106 17.396,17.437C19.744,14.06 22.09,10.731 23.811,7.437C21.383,9.773 20.916,9.456 17.459,13.622C18.282,9.133 22.775,7.141 26.064,3.945C23.043,6.358 25.958,2.082 28.499,-0.039C33.522,-3.734 42.118,-8.13 50.225,-7.299C54.22,-7.922 66.613,-4.886 65.058,-6.947C70.309,-5.908 70.548,-4.217 73.514,-2.369C84.078,1.087 84.478,14.342 91.909,23.349C90.679,23.174 92.829,28.301 92.887,30.2C94.339,34.216 90.726,44.254 93.286,42.88C96.121,39.942 94.992,33.403 95.129,28.567C95.114,24.017 96.002,26.092 96.89,29.566C97.802,32.999 97.249,37.66 98.151,37.93C97.939,36.559 100.024,35.933 99.174,31.573C100.244,40.998 101.256,27.474 102.547,32.333C102.08,20.377 101.21,21.637 101.221,15.021C97.511,8.875 96.936,11.583 95.15,10.339C90.6,4.781 89.057,-1.349 83.537,-5.539C86.425,-4.911 84.912,-7.451 80.922,-10.285C76.922,-13.195 70.566,-14.913 66.771,-15.571C56.969,-17.332 63.033,-13.61 53.057,-15.004C48.191,-16.974 63.412,-15.838 56.984,-18.073L52.295,-17.937C48.886,-17.014 46.214,-15.561 42.679,-14.175C40.466,-13.833 37.301,-12.849 37.084,-13.201C41.125,-14.979 39.714,-15.737 34.782,-14.84C32.882,-13.501 32.435,-13.167 31.664,-12.318C41.25,-13.364 22.841,-8.19 20.249,-1.56C10.688,13.185 10.769,2.818 2.35,18.238C3.64,17.451 3.989,17.728 3.771,18.65L3.662,19.026L3.627,19.129L3.623,19.142C0.203,20.019 8.28,17.95 7.446,18.162L7.441,18.16L7.432,18.156L7.393,18.139L7.313,18.106L7.038,18.002L5.891,17.573C5.07,17.264 4.13,16.909 3.106,16.548C-0.964,15.057 -6.437,13.681 -9.313,13.721C-14.001,12.816 -15.62,11.856 -18.914,10.681C-20.268,10.833 -23.99,10.848 -24.565,11.357C-22.181,15.27 -10.878,18.944 -0.622,26.17C-0.303,26.221 -0.021,26.259 0,26.181" style="fill:rgb(35,31,32);fill-rule:nonzero;"/>
        </g>
    </g>
    <g id="Title">
        <g>
            <g transform="matrix(266.667,0,0,266.667,169.585,559.71)">
                <path d="M0.554,-0.413C0.554,-0.367 0.546,-0.328 0.53,-0.296C0.514,-0.263 0.492,-0.237 0.465,-0.217C0.437,-0.197 0.405,-0.182 0.368,-0.173C0.331,-0.164 0.291,-0.159 0.248,-0.159L0.248,0L0.035,0L0.035,-0.667L0.248,-0.667C0.291,-0.667 0.331,-0.662 0.368,-0.653C0.405,-0.644 0.437,-0.629 0.465,-0.609C0.492,-0.589 0.514,-0.563 0.53,-0.531C0.546,-0.498 0.554,-0.459 0.554,-0.413ZM0.248,-0.339L0.257,-0.339C0.285,-0.339 0.305,-0.345 0.318,-0.359C0.33,-0.372 0.336,-0.39 0.336,-0.413C0.336,-0.436 0.33,-0.455 0.318,-0.468C0.305,-0.481 0.285,-0.487 0.257,-0.487L0.248,-0.487L0.248,-0.339Z" style="fill:rgb(255,12,82);fill-rule:nonzero;stroke:rgb(7,7,7);stroke-width:0.03px;"/>
            </g>
            <g transform="matrix(266.667,0,0,266.667,321.318,559.71)">
                <path d="M0.02,-0.333C0.02,-0.381 0.029,-0.426 0.048,-0.469C0.066,-0.512 0.091,-0.549 0.123,-0.581C0.154,-0.612 0.191,-0.637 0.234,-0.656C0.277,-0.674 0.322,-0.683 0.37,-0.683C0.418,-0.683 0.463,-0.674 0.506,-0.656C0.549,-0.637 0.586,-0.612 0.618,-0.581C0.649,-0.549 0.674,-0.512 0.693,-0.469C0.711,-0.426 0.72,-0.381 0.72,-0.333C0.72,-0.285 0.711,-0.24 0.693,-0.197C0.674,-0.154 0.649,-0.117 0.618,-0.086C0.586,-0.054 0.549,-0.029 0.506,-0.011C0.463,0.008 0.418,0.017 0.37,0.017C0.322,0.017 0.277,0.008 0.234,-0.011C0.191,-0.029 0.154,-0.054 0.123,-0.086C0.091,-0.117 0.066,-0.154 0.048,-0.197C0.029,-0.24 0.02,-0.285 0.02,-0.333ZM0.23,-0.333C0.23,-0.314 0.234,-0.296 0.241,-0.279C0.248,-0.262 0.258,-0.247 0.271,-0.234C0.284,-0.221 0.299,-0.211 0.316,-0.204C0.333,-0.197 0.351,-0.193 0.37,-0.193C0.389,-0.193 0.408,-0.197 0.425,-0.204C0.442,-0.211 0.456,-0.221 0.469,-0.234C0.482,-0.247 0.492,-0.262 0.499,-0.279C0.506,-0.296 0.51,-0.314 0.51,-0.333C0.51,-0.352 0.506,-0.371 0.499,-0.388C0.492,-0.405 0.482,-0.419 0.469,-0.432C0.456,-0.445 0.442,-0.455 0.425,-0.462C0.408,-0.469 0.389,-0.473 0.37,-0.473C0.351,-0.473 0.333,-0.469 0.316,-0.462C0.299,-0.455 0.284,-0.445 0.271,-0.432C0.258,-0.419 0.248,-0.405 0.241,-0.388C0.234,-0.371 0.23,-0.352 0.23,-0.333Z" style="fill:rgb(255,12,82);fill-rule:nonzero;stroke:rgb(18,10,10);stroke-width:0.03px;"/>
            </g>
            <g transform="matrix(266.667,0,0,266.667,518.651,559.71)">
                <path d="M0.035,-0.667L0.21,-0.667L0.394,-0.41L0.394,-0.667L0.603,-0.667L0.603,0L0.427,0L0.244,-0.256L0.244,0L0.035,0L0.035,-0.667Z" style="fill:rgb(255,12,82);fill-rule:nonzero;stroke:rgb(15,7,7);stroke-width:0.03px;"/>
            </g>
            <g transform="matrix(266.667,0,0,266.667,688.785,559.71)">
                <path d="M0.123,-0.492L0,-0.492L0,-0.667L0.466,-0.667L0.466,-0.492L0.343,-0.492L0.343,0L0.123,0L0.123,-0.492Z" style="fill:rgb(255,12,82);fill-rule:nonzero;stroke:rgb(22,9,9);stroke-width:0.03px;"/>
            </g>
            <g transform="matrix(266.667,0,0,266.667,813.051,559.71)">
                <rect x="0.035" y="-0.667" width="0.226" height="0.667" style="fill:rgb(255,12,82);fill-rule:nonzero;stroke:rgb(26,10,10);stroke-width:0.03px;"/>
            </g>
            <g transform="matrix(266.667,0,0,266.667,891.985,559.71)">
                <path d="M0.035,-0.667L0.251,-0.667L0.251,-0.513L0.377,-0.667L0.638,-0.667L0.403,-0.362L0.65,0L0.393,0L0.251,-0.206L0.251,0L0.035,0L0.035,-0.667Z" style="fill:rgb(255,12,82);fill-rule:nonzero;stroke:rgb(19,10,10);stroke-width:0.03px;"/>
            </g>
            <g transform="matrix(266.667,0,0,266.667,1061.32,559.71)">
                <rect x="0.035" y="-0.667" width="0.226" height="0.667" style="fill:rgb(255,12,82);fill-rule:nonzero;stroke:rgb(25,8,8);stroke-width:0.03px;"/>
            </g>
        </g>
    </g>
    <g transform="matrix(1.20437,0,0,1.20437,103.619,-46.7056)">
        <g id="Subtitle-2" serif:id="Subtitle 2">
            <g>
                <g transform="matrix(189.051,0,0,189.051,146.504,678.282)">
                    <path d="M0.513,-0.141C0.505,-0.156 0.493,-0.17 0.477,-0.182C0.46,-0.194 0.442,-0.203 0.422,-0.211C0.401,-0.218 0.38,-0.223 0.358,-0.227C0.292,-0.237 0.231,-0.258 0.174,-0.291C0.169,-0.294 0.164,-0.299 0.158,-0.308C0.153,-0.316 0.15,-0.324 0.15,-0.332C0.15,-0.361 0.155,-0.389 0.164,-0.418C0.174,-0.447 0.186,-0.47 0.201,-0.486C0.225,-0.513 0.269,-0.536 0.331,-0.557C0.394,-0.577 0.465,-0.587 0.543,-0.587C0.59,-0.587 0.626,-0.583 0.652,-0.576C0.677,-0.569 0.69,-0.558 0.69,-0.543C0.69,-0.519 0.687,-0.5 0.68,-0.486C0.673,-0.473 0.666,-0.464 0.658,-0.46C0.651,-0.455 0.637,-0.449 0.618,-0.442C0.598,-0.435 0.58,-0.427 0.565,-0.419C0.55,-0.412 0.537,-0.404 0.526,-0.397C0.515,-0.39 0.508,-0.386 0.506,-0.386C0.503,-0.386 0.501,-0.388 0.501,-0.39C0.501,-0.396 0.507,-0.404 0.518,-0.415C0.53,-0.427 0.544,-0.436 0.561,-0.445C0.579,-0.454 0.588,-0.46 0.588,-0.463C0.588,-0.467 0.578,-0.469 0.558,-0.469C0.498,-0.469 0.442,-0.464 0.391,-0.453C0.34,-0.442 0.3,-0.428 0.27,-0.411C0.241,-0.393 0.226,-0.375 0.226,-0.357C0.226,-0.346 0.232,-0.337 0.244,-0.333C0.257,-0.328 0.284,-0.32 0.325,-0.309C0.367,-0.298 0.404,-0.285 0.437,-0.271C0.484,-0.251 0.519,-0.23 0.542,-0.208C0.565,-0.186 0.576,-0.162 0.576,-0.135C0.576,-0.116 0.572,-0.098 0.563,-0.079C0.554,-0.06 0.541,-0.043 0.523,-0.027C0.506,-0.012 0.486,0.001 0.464,0.011C0.445,0.019 0.42,0.027 0.391,0.034C0.362,0.041 0.331,0.047 0.297,0.051C0.263,0.055 0.23,0.057 0.199,0.057C0.142,0.057 0.096,0.052 0.062,0.041C0.027,0.03 0.01,0.014 0.01,-0.008C0.01,-0.018 0.016,-0.033 0.027,-0.053C0.039,-0.074 0.053,-0.088 0.069,-0.095C0.083,-0.101 0.096,-0.104 0.109,-0.105C0.122,-0.106 0.129,-0.104 0.129,-0.1C0.129,-0.099 0.128,-0.098 0.127,-0.097C0.126,-0.096 0.125,-0.095 0.124,-0.095C0.123,-0.094 0.121,-0.093 0.12,-0.093C0.114,-0.09 0.108,-0.088 0.104,-0.087C0.1,-0.085 0.097,-0.084 0.094,-0.082C0.092,-0.081 0.091,-0.079 0.091,-0.076C0.091,-0.069 0.125,-0.066 0.192,-0.066C0.25,-0.066 0.299,-0.068 0.336,-0.072C0.373,-0.076 0.406,-0.084 0.435,-0.095C0.464,-0.106 0.49,-0.122 0.513,-0.141Z" style="fill:rgb(0,173,255);fill-rule:nonzero;stroke:rgb(25,5,5);stroke-width:0.02px;"/>
                </g>
                <g transform="matrix(189.051,0,0,189.051,268.63,678.282)">
                    <path d="M0.322,-0.155L0.322,-0.122C0.3,-0.103 0.283,-0.09 0.27,-0.083C0.257,-0.076 0.238,-0.074 0.214,-0.075C0.172,-0.025 0.134,0 0.102,0C0.084,0 0.067,-0.006 0.052,-0.018C0.037,-0.03 0.025,-0.047 0.016,-0.067C0.007,-0.088 0.003,-0.111 0.003,-0.137C0.003,-0.158 0.01,-0.181 0.024,-0.207C0.038,-0.232 0.055,-0.256 0.077,-0.278C0.099,-0.3 0.123,-0.317 0.148,-0.331C0.173,-0.344 0.196,-0.351 0.218,-0.351C0.233,-0.351 0.245,-0.349 0.254,-0.344C0.263,-0.339 0.267,-0.333 0.267,-0.324C0.267,-0.318 0.263,-0.31 0.256,-0.302C0.268,-0.299 0.277,-0.295 0.281,-0.289C0.286,-0.283 0.288,-0.272 0.288,-0.256C0.288,-0.24 0.284,-0.221 0.277,-0.197C0.27,-0.173 0.26,-0.151 0.247,-0.13L0.256,-0.121L0.263,-0.121C0.269,-0.121 0.274,-0.122 0.28,-0.125C0.285,-0.128 0.29,-0.131 0.294,-0.134C0.298,-0.137 0.307,-0.144 0.322,-0.155ZM0.221,-0.283C0.194,-0.267 0.171,-0.252 0.152,-0.239C0.133,-0.226 0.116,-0.212 0.103,-0.199C0.09,-0.185 0.081,-0.172 0.076,-0.158C0.068,-0.122 0.064,-0.102 0.064,-0.099C0.064,-0.078 0.079,-0.067 0.109,-0.067C0.123,-0.067 0.146,-0.079 0.179,-0.103C0.174,-0.118 0.171,-0.133 0.171,-0.147C0.171,-0.167 0.175,-0.188 0.184,-0.21C0.192,-0.231 0.205,-0.256 0.221,-0.283Z" style="fill:rgb(0,173,255);fill-rule:nonzero;stroke:rgb(25,5,5);stroke-width:0.02px;"/>
                </g>
                <g transform="matrix(189.051,0,0,189.051,327.801,678.282)">
                    <path d="M0.28,-0.154L0.28,-0.12C0.26,-0.101 0.245,-0.086 0.235,-0.078C0.225,-0.069 0.211,-0.06 0.194,-0.051C0.194,-0.021 0.192,0.004 0.189,0.025C0.187,0.046 0.18,0.068 0.17,0.091C0.16,0.114 0.144,0.139 0.123,0.166C0.102,0.193 0.082,0.214 0.062,0.228C0.041,0.243 0.026,0.25 0.014,0.25C0.001,0.25 -0.01,0.24 -0.021,0.219C-0.032,0.198 -0.037,0.172 -0.037,0.141C-0.037,0.111 -0.032,0.08 -0.022,0.047C-0.012,0.014 0.004,-0.028 0.025,-0.08C0.009,-0.101 0.001,-0.122 0.001,-0.142C0.001,-0.159 0.005,-0.171 0.014,-0.18C0.022,-0.189 0.034,-0.197 0.05,-0.204C0.061,-0.222 0.072,-0.237 0.082,-0.25C0.093,-0.262 0.106,-0.279 0.124,-0.3C0.158,-0.383 0.198,-0.465 0.243,-0.544C0.256,-0.566 0.265,-0.581 0.271,-0.589C0.276,-0.596 0.282,-0.6 0.288,-0.6C0.294,-0.6 0.299,-0.596 0.303,-0.588C0.307,-0.58 0.309,-0.569 0.309,-0.556C0.309,-0.54 0.307,-0.526 0.304,-0.512C0.301,-0.499 0.296,-0.485 0.289,-0.472C0.283,-0.458 0.274,-0.442 0.263,-0.423C0.252,-0.404 0.245,-0.393 0.242,-0.388C0.226,-0.36 0.208,-0.328 0.187,-0.293C0.167,-0.258 0.15,-0.231 0.138,-0.21C0.127,-0.19 0.118,-0.175 0.113,-0.165C0.13,-0.15 0.144,-0.137 0.155,-0.125C0.165,-0.114 0.174,-0.101 0.181,-0.086C0.192,-0.09 0.202,-0.095 0.211,-0.101C0.221,-0.107 0.231,-0.115 0.244,-0.125C0.256,-0.135 0.268,-0.145 0.28,-0.154ZM0.134,-0.023L0.133,-0.033C0.124,-0.032 0.116,-0.032 0.111,-0.032C0.105,-0.033 0.099,-0.034 0.092,-0.037C0.084,-0.039 0.079,-0.041 0.074,-0.043C0.07,-0.045 0.066,-0.047 0.061,-0.049C0.036,0.012 0.024,0.062 0.024,0.102C0.024,0.122 0.027,0.139 0.033,0.153C0.039,0.167 0.046,0.174 0.054,0.174C0.063,0.174 0.073,0.166 0.086,0.151C0.099,0.136 0.11,0.114 0.12,0.085C0.129,0.056 0.134,0.02 0.134,-0.023Z" style="fill:rgb(0,173,255);fill-rule:nonzero;stroke:rgb(25,5,5);stroke-width:0.02px;"/>
                </g>
                <g transform="matrix(189.051,0,0,189.051,379.033,678.282)">
                    <path d="M0.179,-0.407L0.2,-0.407C0.217,-0.438 0.233,-0.46 0.247,-0.473C0.261,-0.486 0.277,-0.492 0.295,-0.492C0.313,-0.492 0.322,-0.488 0.322,-0.48C0.322,-0.476 0.315,-0.465 0.301,-0.448C0.287,-0.431 0.276,-0.417 0.269,-0.405C0.28,-0.403 0.29,-0.402 0.299,-0.401C0.307,-0.4 0.314,-0.4 0.319,-0.399C0.3,-0.364 0.277,-0.329 0.249,-0.293L0.207,-0.296C0.201,-0.297 0.193,-0.297 0.184,-0.298C0.167,-0.27 0.152,-0.244 0.14,-0.222C0.128,-0.2 0.119,-0.179 0.113,-0.161C0.106,-0.142 0.103,-0.125 0.103,-0.108C0.103,-0.085 0.112,-0.074 0.13,-0.074C0.142,-0.074 0.158,-0.081 0.178,-0.094C0.198,-0.107 0.225,-0.127 0.259,-0.155L0.259,-0.122C0.171,-0.027 0.106,0.021 0.064,0.021C0.049,0.021 0.038,0.015 0.029,0.004C0.02,-0.007 0.015,-0.022 0.015,-0.04C0.015,-0.052 0.018,-0.066 0.023,-0.083C0.028,-0.1 0.037,-0.125 0.05,-0.158C0.045,-0.154 0.041,-0.15 0.037,-0.147C0.033,-0.143 0.029,-0.14 0.026,-0.136L0.003,-0.116L0.003,-0.15C0.037,-0.179 0.078,-0.229 0.127,-0.301C0.122,-0.301 0.118,-0.301 0.113,-0.302C0.109,-0.302 0.104,-0.302 0.098,-0.302C0.079,-0.302 0.065,-0.3 0.055,-0.298C0.051,-0.297 0.048,-0.296 0.044,-0.295C0.041,-0.294 0.038,-0.293 0.037,-0.293C0.036,-0.293 0.035,-0.294 0.035,-0.296C0.035,-0.307 0.042,-0.323 0.055,-0.344C0.066,-0.362 0.076,-0.376 0.086,-0.385C0.095,-0.394 0.107,-0.399 0.121,-0.403C0.135,-0.406 0.154,-0.407 0.179,-0.407Z" style="fill:rgb(0,173,255);fill-rule:nonzero;stroke:rgb(25,5,5);stroke-width:0.02px;"/>
                </g>
                <g transform="matrix(189.051,0,0,189.051,426.295,678.282)">
                    <path d="M0.263,-0.096C0.263,-0.082 0.269,-0.074 0.28,-0.074C0.294,-0.074 0.319,-0.098 0.355,-0.147C0.354,-0.156 0.353,-0.162 0.353,-0.165C0.353,-0.183 0.36,-0.204 0.374,-0.229C0.388,-0.255 0.404,-0.277 0.422,-0.296C0.441,-0.315 0.454,-0.324 0.464,-0.324C0.475,-0.324 0.481,-0.311 0.481,-0.283C0.481,-0.261 0.476,-0.239 0.467,-0.217C0.457,-0.195 0.443,-0.173 0.425,-0.15C0.428,-0.147 0.431,-0.144 0.435,-0.141C0.438,-0.138 0.442,-0.135 0.446,-0.133C0.45,-0.131 0.454,-0.13 0.459,-0.13C0.47,-0.13 0.483,-0.139 0.5,-0.156L0.5,-0.121C0.474,-0.094 0.452,-0.081 0.433,-0.081C0.422,-0.081 0.413,-0.082 0.407,-0.085C0.401,-0.088 0.393,-0.093 0.383,-0.1C0.323,-0.028 0.277,0.008 0.246,0.008C0.234,0.008 0.225,0.003 0.218,-0.006C0.211,-0.015 0.207,-0.027 0.207,-0.043C0.207,-0.051 0.21,-0.08 0.217,-0.131C0.204,-0.116 0.189,-0.099 0.172,-0.079C0.155,-0.059 0.142,-0.044 0.131,-0.033C0.121,-0.023 0.111,-0.015 0.102,-0.009C0.093,-0.003 0.084,0 0.075,0C0.066,0 0.056,-0.006 0.044,-0.017C0.031,-0.028 0.021,-0.042 0.013,-0.061C0.004,-0.079 0,-0.099 0,-0.12C0,-0.141 0.003,-0.158 0.009,-0.173C0.015,-0.188 0.028,-0.209 0.049,-0.239C0.068,-0.265 0.084,-0.286 0.099,-0.303C0.114,-0.319 0.127,-0.332 0.139,-0.341C0.151,-0.35 0.16,-0.355 0.168,-0.355C0.173,-0.355 0.178,-0.354 0.186,-0.352C0.193,-0.35 0.2,-0.347 0.205,-0.343C0.211,-0.34 0.214,-0.336 0.214,-0.332C0.214,-0.32 0.208,-0.304 0.198,-0.285C0.187,-0.266 0.17,-0.245 0.149,-0.222C0.127,-0.198 0.103,-0.174 0.075,-0.15C0.068,-0.127 0.064,-0.109 0.064,-0.095C0.064,-0.091 0.065,-0.086 0.068,-0.082C0.071,-0.078 0.074,-0.076 0.078,-0.076C0.091,-0.076 0.117,-0.097 0.155,-0.139C0.193,-0.18 0.243,-0.243 0.305,-0.328C0.307,-0.331 0.312,-0.333 0.32,-0.333C0.328,-0.333 0.335,-0.331 0.342,-0.328C0.349,-0.324 0.352,-0.319 0.352,-0.313C0.352,-0.309 0.344,-0.29 0.326,-0.256C0.309,-0.221 0.295,-0.19 0.282,-0.161C0.269,-0.132 0.263,-0.111 0.263,-0.096Z" style="fill:rgb(0,173,255);fill-rule:nonzero;stroke:rgb(25,5,5);stroke-width:0.02px;"/>
                </g>
                <g transform="matrix(189.051,0,0,189.051,518.975,678.282)">
                    <path d="M0.065,-0.241C0.114,-0.286 0.162,-0.319 0.209,-0.341C0.256,-0.363 0.292,-0.374 0.317,-0.374C0.324,-0.374 0.33,-0.371 0.336,-0.365C0.342,-0.36 0.346,-0.353 0.35,-0.346C0.353,-0.338 0.355,-0.333 0.355,-0.329C0.355,-0.323 0.353,-0.319 0.348,-0.316C0.344,-0.313 0.336,-0.31 0.324,-0.306C0.326,-0.301 0.329,-0.294 0.333,-0.286C0.337,-0.278 0.339,-0.271 0.341,-0.266C0.343,-0.261 0.344,-0.257 0.344,-0.253C0.344,-0.245 0.336,-0.231 0.321,-0.209C0.305,-0.188 0.294,-0.172 0.287,-0.162C0.281,-0.152 0.278,-0.14 0.278,-0.125C0.278,-0.101 0.289,-0.089 0.311,-0.089C0.334,-0.089 0.369,-0.11 0.418,-0.153L0.418,-0.123C0.336,-0.032 0.277,0.014 0.241,0.014C0.229,0.014 0.219,0.01 0.214,0.002C0.209,-0.007 0.206,-0.019 0.206,-0.035C0.206,-0.061 0.215,-0.098 0.234,-0.147C0.186,-0.094 0.151,-0.057 0.128,-0.034C0.105,-0.012 0.086,-0.001 0.071,-0.001C0.064,-0.001 0.055,-0.007 0.044,-0.02C0.033,-0.032 0.024,-0.048 0.015,-0.068C0.007,-0.087 0.003,-0.108 0.003,-0.129C0.003,-0.144 0.004,-0.157 0.007,-0.167C0.01,-0.177 0.016,-0.188 0.024,-0.199C0.033,-0.209 0.046,-0.224 0.065,-0.241ZM0.299,-0.295C0.214,-0.256 0.154,-0.223 0.118,-0.196C0.082,-0.169 0.064,-0.141 0.064,-0.113C0.064,-0.102 0.066,-0.094 0.069,-0.087C0.073,-0.08 0.078,-0.077 0.084,-0.077C0.088,-0.077 0.094,-0.079 0.103,-0.084C0.137,-0.104 0.168,-0.13 0.197,-0.163C0.225,-0.195 0.259,-0.239 0.299,-0.295Z" style="fill:rgb(0,173,255);fill-rule:nonzero;stroke:rgb(25,5,5);stroke-width:0.02px;"/>
                </g>
                <g transform="matrix(189.051,0,0,189.051,595.685,678.282)">
                    <path d="M0.003,-0.116L0.003,-0.148C0.021,-0.169 0.034,-0.187 0.043,-0.201C0.033,-0.205 0.025,-0.209 0.02,-0.214C0.016,-0.22 0.013,-0.227 0.013,-0.238C0.013,-0.25 0.018,-0.264 0.028,-0.282C0.038,-0.3 0.05,-0.317 0.064,-0.333C0.078,-0.348 0.091,-0.358 0.103,-0.363C0.108,-0.365 0.112,-0.366 0.116,-0.366C0.123,-0.366 0.126,-0.363 0.126,-0.357C0.126,-0.351 0.121,-0.34 0.111,-0.323C0.178,-0.334 0.22,-0.339 0.238,-0.339C0.245,-0.339 0.249,-0.338 0.252,-0.337C0.257,-0.334 0.262,-0.327 0.266,-0.316C0.269,-0.306 0.271,-0.295 0.271,-0.284C0.271,-0.277 0.268,-0.27 0.262,-0.262C0.256,-0.254 0.246,-0.242 0.231,-0.227C0.214,-0.208 0.199,-0.188 0.188,-0.167C0.176,-0.145 0.17,-0.128 0.17,-0.117C0.17,-0.102 0.179,-0.094 0.198,-0.094C0.218,-0.094 0.253,-0.114 0.302,-0.155L0.302,-0.122C0.275,-0.094 0.252,-0.071 0.235,-0.055C0.217,-0.039 0.201,-0.026 0.186,-0.016C0.171,-0.007 0.158,-0.002 0.146,-0.002C0.132,-0.002 0.121,-0.008 0.112,-0.021C0.103,-0.033 0.098,-0.051 0.098,-0.075C0.098,-0.089 0.102,-0.105 0.109,-0.123C0.116,-0.141 0.127,-0.16 0.14,-0.181C0.154,-0.202 0.17,-0.223 0.187,-0.244C0.178,-0.242 0.168,-0.24 0.156,-0.238L0.091,-0.226C0.071,-0.186 0.041,-0.149 0.003,-0.116Z" style="fill:rgb(0,173,255);fill-rule:nonzero;stroke:rgb(25,5,5);stroke-width:0.02px;"/>
                </g>
                <g transform="matrix(189.051,0,0,189.051,650.886,678.282)">
                    <path d="M0.086,-0.136L0.086,-0.124C0.086,-0.105 0.091,-0.09 0.1,-0.079C0.11,-0.068 0.122,-0.063 0.137,-0.063C0.153,-0.063 0.17,-0.067 0.187,-0.074C0.204,-0.082 0.221,-0.092 0.238,-0.104C0.255,-0.116 0.275,-0.133 0.3,-0.154L0.3,-0.124C0.263,-0.08 0.229,-0.046 0.196,-0.022C0.164,0.001 0.131,0.013 0.098,0.013C0.069,0.013 0.046,0.002 0.029,-0.021C0.012,-0.043 0.004,-0.074 0.004,-0.113C0.004,-0.147 0.012,-0.178 0.028,-0.206C0.044,-0.234 0.07,-0.263 0.106,-0.294C0.131,-0.315 0.155,-0.331 0.18,-0.342C0.204,-0.353 0.226,-0.358 0.245,-0.358C0.26,-0.358 0.273,-0.354 0.281,-0.347C0.29,-0.34 0.295,-0.33 0.295,-0.316C0.295,-0.295 0.287,-0.275 0.272,-0.255C0.257,-0.234 0.233,-0.214 0.202,-0.194C0.17,-0.174 0.132,-0.155 0.086,-0.136ZM0.091,-0.168C0.12,-0.179 0.145,-0.194 0.166,-0.21C0.187,-0.227 0.202,-0.244 0.212,-0.259C0.222,-0.274 0.227,-0.286 0.227,-0.293C0.227,-0.3 0.224,-0.304 0.217,-0.304C0.211,-0.304 0.201,-0.3 0.188,-0.293C0.175,-0.285 0.162,-0.276 0.148,-0.264C0.135,-0.252 0.123,-0.237 0.112,-0.221C0.101,-0.205 0.094,-0.187 0.091,-0.168Z" style="fill:rgb(0,173,255);fill-rule:nonzero;stroke:rgb(25,5,5);stroke-width:0.02px;"/>
                </g>
                <g transform="matrix(189.051,0,0,189.051,224.506,867.333)">
                    <path d="M0.616,-0.156L0.616,-0.124C0.562,-0.063 0.511,-0.013 0.466,0.027C0.42,0.066 0.375,0.097 0.332,0.118C0.288,0.139 0.246,0.15 0.205,0.15C0.17,0.15 0.14,0.143 0.115,0.129C0.089,0.115 0.07,0.094 0.057,0.068C0.045,0.041 0.038,0.009 0.038,-0.028C0.038,-0.057 0.043,-0.087 0.052,-0.12C0.061,-0.152 0.075,-0.185 0.092,-0.218C0.11,-0.251 0.131,-0.285 0.157,-0.32C0.183,-0.355 0.213,-0.392 0.247,-0.431C0.283,-0.471 0.318,-0.506 0.353,-0.535C0.388,-0.564 0.419,-0.587 0.448,-0.604C0.476,-0.62 0.502,-0.632 0.527,-0.641C0.551,-0.649 0.571,-0.653 0.587,-0.653C0.603,-0.653 0.617,-0.649 0.628,-0.641C0.64,-0.633 0.649,-0.622 0.655,-0.607C0.661,-0.592 0.664,-0.575 0.664,-0.555C0.664,-0.518 0.652,-0.477 0.626,-0.432C0.601,-0.387 0.57,-0.344 0.533,-0.302C0.495,-0.26 0.46,-0.226 0.426,-0.199C0.392,-0.172 0.367,-0.159 0.352,-0.159C0.342,-0.159 0.333,-0.163 0.324,-0.171C0.315,-0.179 0.311,-0.188 0.311,-0.198C0.311,-0.217 0.321,-0.239 0.341,-0.266C0.36,-0.292 0.382,-0.316 0.405,-0.338C0.428,-0.36 0.442,-0.371 0.447,-0.371C0.449,-0.371 0.45,-0.37 0.45,-0.368C0.45,-0.365 0.448,-0.36 0.445,-0.353C0.442,-0.346 0.44,-0.341 0.44,-0.34C0.44,-0.337 0.441,-0.336 0.443,-0.336C0.448,-0.336 0.464,-0.351 0.491,-0.38C0.517,-0.41 0.541,-0.443 0.563,-0.478C0.585,-0.514 0.596,-0.543 0.596,-0.566C0.596,-0.575 0.594,-0.583 0.59,-0.588C0.586,-0.593 0.58,-0.595 0.572,-0.595C0.549,-0.595 0.514,-0.577 0.468,-0.54C0.422,-0.503 0.374,-0.456 0.325,-0.399C0.277,-0.342 0.236,-0.283 0.204,-0.222C0.171,-0.161 0.155,-0.107 0.155,-0.061C0.155,-0.034 0.159,-0.012 0.167,0.006C0.175,0.024 0.186,0.038 0.202,0.047C0.217,0.057 0.236,0.062 0.258,0.062C0.305,0.062 0.359,0.044 0.418,0.007C0.478,-0.03 0.544,-0.084 0.616,-0.156Z" style="fill:rgb(0,173,255);fill-rule:nonzero;stroke:rgb(25,5,5);stroke-width:0.02px;"/>
                </g>
                <g transform="matrix(189.051,0,0,189.051,338.693,867.333)">
                    <path d="M0.003,-0.116L0.003,-0.148C0.021,-0.169 0.034,-0.187 0.043,-0.201C0.033,-0.205 0.025,-0.209 0.02,-0.214C0.016,-0.22 0.013,-0.227 0.013,-0.238C0.013,-0.25 0.018,-0.264 0.028,-0.282C0.038,-0.3 0.05,-0.317 0.064,-0.333C0.078,-0.348 0.091,-0.358 0.103,-0.363C0.108,-0.365 0.112,-0.366 0.116,-0.366C0.123,-0.366 0.126,-0.363 0.126,-0.357C0.126,-0.351 0.121,-0.34 0.111,-0.323C0.178,-0.334 0.22,-0.339 0.238,-0.339C0.245,-0.339 0.249,-0.338 0.252,-0.337C0.257,-0.334 0.262,-0.327 0.266,-0.316C0.269,-0.306 0.271,-0.295 0.271,-0.284C0.271,-0.277 0.268,-0.27 0.262,-0.262C0.256,-0.254 0.246,-0.242 0.231,-0.227C0.214,-0.208 0.199,-0.188 0.188,-0.167C0.176,-0.145 0.17,-0.128 0.17,-0.117C0.17,-0.102 0.179,-0.094 0.198,-0.094C0.218,-0.094 0.253,-0.114 0.302,-0.155L0.302,-0.122C0.275,-0.094 0.252,-0.071 0.235,-0.055C0.217,-0.039 0.201,-0.026 0.186,-0.016C0.171,-0.007 0.158,-0.002 0.146,-0.002C0.132,-0.002 0.121,-0.008 0.112,-0.021C0.103,-0.033 0.098,-0.051 0.098,-0.075C0.098,-0.089 0.102,-0.105 0.109,-0.123C0.116,-0.141 0.127,-0.16 0.14,-0.181C0.154,-0.202 0.17,-0.223 0.187,-0.244C0.178,-0.242 0.168,-0.24 0.156,-0.238L0.091,-0.226C0.071,-0.186 0.041,-0.149 0.003,-0.116Z" style="fill:rgb(0,173,255);fill-rule:nonzero;stroke:rgb(25,5,5);stroke-width:0.02px;"/>
                </g>
                <g transform="matrix(189.051,0,0,189.051,393.895,867.333)">
                    <path d="M0.065,-0.241C0.114,-0.286 0.162,-0.319 0.209,-0.341C0.256,-0.363 0.292,-0.374 0.317,-0.374C0.324,-0.374 0.33,-0.371 0.336,-0.365C0.342,-0.36 0.346,-0.353 0.35,-0.346C0.353,-0.338 0.355,-0.333 0.355,-0.329C0.355,-0.323 0.353,-0.319 0.348,-0.316C0.344,-0.313 0.336,-0.31 0.324,-0.306C0.326,-0.301 0.329,-0.294 0.333,-0.286C0.337,-0.278 0.339,-0.271 0.341,-0.266C0.343,-0.261 0.344,-0.257 0.344,-0.253C0.344,-0.245 0.336,-0.231 0.321,-0.209C0.305,-0.188 0.294,-0.172 0.287,-0.162C0.281,-0.152 0.278,-0.14 0.278,-0.125C0.278,-0.101 0.289,-0.089 0.311,-0.089C0.334,-0.089 0.369,-0.11 0.418,-0.153L0.418,-0.123C0.336,-0.032 0.277,0.014 0.241,0.014C0.229,0.014 0.219,0.01 0.214,0.002C0.209,-0.007 0.206,-0.019 0.206,-0.035C0.206,-0.061 0.215,-0.098 0.234,-0.147C0.186,-0.094 0.151,-0.057 0.128,-0.034C0.105,-0.012 0.086,-0.001 0.071,-0.001C0.064,-0.001 0.055,-0.007 0.044,-0.02C0.033,-0.032 0.024,-0.048 0.015,-0.068C0.007,-0.087 0.003,-0.108 0.003,-0.129C0.003,-0.144 0.004,-0.157 0.007,-0.167C0.01,-0.177 0.016,-0.188 0.024,-0.199C0.033,-0.209 0.046,-0.224 0.065,-0.241ZM0.299,-0.295C0.214,-0.256 0.154,-0.223 0.118,-0.196C0.082,-0.169 0.064,-0.141 0.064,-0.113C0.064,-0.102 0.066,-0.094 0.069,-0.087C0.073,-0.08 0.078,-0.077 0.084,-0.077C0.088,-0.077 0.094,-0.079 0.103,-0.084C0.137,-0.104 0.168,-0.13 0.197,-0.163C0.225,-0.195 0.259,-0.239 0.299,-0.295Z" style="fill:rgb(0,173,255);fill-rule:nonzero;stroke:rgb(25,5,5);stroke-width:0.02px;"/>
                </g>
                <g transform="matrix(189.051,0,0,189.051,470.604,867.333)">
                    <path d="M0.28,-0.154L0.28,-0.12C0.26,-0.101 0.245,-0.086 0.235,-0.078C0.225,-0.069 0.211,-0.06 0.194,-0.051C0.194,-0.021 0.192,0.004 0.189,0.025C0.187,0.046 0.18,0.068 0.17,0.091C0.16,0.114 0.144,0.139 0.123,0.166C0.102,0.193 0.082,0.214 0.062,0.228C0.041,0.243 0.026,0.25 0.014,0.25C0.001,0.25 -0.01,0.24 -0.021,0.219C-0.032,0.198 -0.037,0.172 -0.037,0.141C-0.037,0.111 -0.032,0.08 -0.022,0.047C-0.012,0.014 0.004,-0.028 0.025,-0.08C0.009,-0.101 0.001,-0.122 0.001,-0.142C0.001,-0.159 0.005,-0.171 0.014,-0.18C0.022,-0.189 0.034,-0.197 0.05,-0.204C0.061,-0.222 0.072,-0.237 0.082,-0.25C0.093,-0.262 0.106,-0.279 0.124,-0.3C0.158,-0.383 0.198,-0.465 0.243,-0.544C0.256,-0.566 0.265,-0.581 0.271,-0.589C0.276,-0.596 0.282,-0.6 0.288,-0.6C0.294,-0.6 0.299,-0.596 0.303,-0.588C0.307,-0.58 0.309,-0.569 0.309,-0.556C0.309,-0.54 0.307,-0.526 0.304,-0.512C0.301,-0.499 0.296,-0.485 0.289,-0.472C0.283,-0.458 0.274,-0.442 0.263,-0.423C0.252,-0.404 0.245,-0.393 0.242,-0.388C0.226,-0.36 0.208,-0.328 0.187,-0.293C0.167,-0.258 0.15,-0.231 0.138,-0.21C0.127,-0.19 0.118,-0.175 0.113,-0.165C0.13,-0.15 0.144,-0.137 0.155,-0.125C0.165,-0.114 0.174,-0.101 0.181,-0.086C0.192,-0.09 0.202,-0.095 0.211,-0.101C0.221,-0.107 0.231,-0.115 0.244,-0.125C0.256,-0.135 0.268,-0.145 0.28,-0.154ZM0.134,-0.023L0.133,-0.033C0.124,-0.032 0.116,-0.032 0.111,-0.032C0.105,-0.033 0.099,-0.034 0.092,-0.037C0.084,-0.039 0.079,-0.041 0.074,-0.043C0.07,-0.045 0.066,-0.047 0.061,-0.049C0.036,0.012 0.024,0.062 0.024,0.102C0.024,0.122 0.027,0.139 0.033,0.153C0.039,0.167 0.046,0.174 0.054,0.174C0.063,0.174 0.073,0.166 0.086,0.151C0.099,0.136 0.11,0.114 0.12,0.085C0.129,0.056 0.134,0.02 0.134,-0.023Z" style="fill:rgb(0,173,255);fill-rule:nonzero;stroke:rgb(25,5,5);stroke-width:0.02px;"/>
                </g>
                <g transform="matrix(189.051,0,0,189.051,521.836,867.333)">
                    <path d="M0.179,-0.407L0.2,-0.407C0.217,-0.438 0.233,-0.46 0.247,-0.473C0.261,-0.486 0.277,-0.492 0.295,-0.492C0.313,-0.492 0.322,-0.488 0.322,-0.48C0.322,-0.476 0.315,-0.465 0.301,-0.448C0.287,-0.431 0.276,-0.417 0.269,-0.405C0.28,-0.403 0.29,-0.402 0.299,-0.401C0.307,-0.4 0.314,-0.4 0.319,-0.399C0.3,-0.364 0.277,-0.329 0.249,-0.293L0.207,-0.296C0.201,-0.297 0.193,-0.297 0.184,-0.298C0.167,-0.27 0.152,-0.244 0.14,-0.222C0.128,-0.2 0.119,-0.179 0.113,-0.161C0.106,-0.142 0.103,-0.125 0.103,-0.108C0.103,-0.085 0.112,-0.074 0.13,-0.074C0.142,-0.074 0.158,-0.081 0.178,-0.094C0.198,-0.107 0.225,-0.127 0.259,-0.155L0.259,-0.122C0.171,-0.027 0.106,0.021 0.064,0.021C0.049,0.021 0.038,0.015 0.029,0.004C0.02,-0.007 0.015,-0.022 0.015,-0.04C0.015,-0.052 0.018,-0.066 0.023,-0.083C0.028,-0.1 0.037,-0.125 0.05,-0.158C0.045,-0.154 0.041,-0.15 0.037,-0.147C0.033,-0.143 0.029,-0.14 0.026,-0.136L0.003,-0.116L0.003,-0.15C0.037,-0.179 0.078,-0.229 0.127,-0.301C0.122,-0.301 0.118,-0.301 0.113,-0.302C0.109,-0.302 0.104,-0.302 0.098,-0.302C0.079,-0.302 0.065,-0.3 0.055,-0.298C0.051,-0.297 0.048,-0.296 0.044,-0.295C0.041,-0.294 0.038,-0.293 0.037,-0.293C0.036,-0.293 0.035,-0.294 0.035,-0.296C0.035,-0.307 0.042,-0.323 0.055,-0.344C0.066,-0.362 0.076,-0.376 0.086,-0.385C0.095,-0.394 0.107,-0.399 0.121,-0.403C0.135,-0.406 0.154,-0.407 0.179,-0.407Z" style="fill:rgb(0,173,255);fill-rule:nonzero;stroke:rgb(25,5,5);stroke-width:0.02px;"/>
                </g>
                <g transform="matrix(189.051,0,0,189.051,569.099,867.333)">
                    <path d="M0.006,-0.14L0.006,-0.152C0.09,-0.24 0.148,-0.302 0.179,-0.338C0.186,-0.378 0.204,-0.398 0.231,-0.398C0.238,-0.398 0.245,-0.396 0.253,-0.392L0.256,-0.383C0.255,-0.379 0.254,-0.373 0.254,-0.366C0.254,-0.36 0.256,-0.349 0.261,-0.332C0.266,-0.315 0.269,-0.301 0.272,-0.29C0.275,-0.278 0.276,-0.265 0.276,-0.251C0.276,-0.229 0.271,-0.209 0.261,-0.189C0.251,-0.17 0.237,-0.151 0.219,-0.133C0.2,-0.115 0.176,-0.096 0.147,-0.077C0.159,-0.075 0.168,-0.074 0.175,-0.074C0.188,-0.074 0.203,-0.078 0.218,-0.084C0.233,-0.091 0.249,-0.1 0.265,-0.111C0.281,-0.122 0.3,-0.137 0.322,-0.155L0.322,-0.122C0.28,-0.081 0.243,-0.051 0.21,-0.03C0.177,-0.009 0.149,0.002 0.125,0.002C0.094,0.002 0.066,-0.011 0.04,-0.037C0.025,-0.053 0.015,-0.068 0.011,-0.082C0.008,-0.096 0.006,-0.116 0.006,-0.14ZM0.188,-0.215L0.179,-0.286C0.159,-0.263 0.116,-0.22 0.05,-0.155C0.069,-0.151 0.083,-0.145 0.09,-0.138C0.097,-0.131 0.107,-0.117 0.12,-0.096C0.142,-0.105 0.159,-0.118 0.171,-0.134C0.183,-0.149 0.189,-0.171 0.189,-0.198C0.189,-0.201 0.189,-0.204 0.189,-0.207C0.189,-0.21 0.188,-0.212 0.188,-0.215Z" style="fill:rgb(0,173,255);fill-rule:nonzero;stroke:rgb(25,5,5);stroke-width:0.02px;"/>
                </g>
            </g>
        </g>
    </g>
</svg>
